<svg width="58" height="58" viewBox="0 0 58 58" fill="none" xmlns="http://www.w3.org/2000/svg">
<path d="M27.6668 10.3335H28.8252C36.9512 10.3335 41.0142 10.3335 42.5565 11.7929C43.8897 13.0545 44.4805 14.9129 44.1206 16.7127C43.7042 18.7949 40.3871 21.1411 33.7529 25.8336L22.9141 33.5001C16.2799 38.1925 12.9628 40.5388 12.5464 42.6209C12.1864 44.4207 12.7773 46.2792 14.1105 47.5407C15.6528 49.0002 19.7158 49.0002 27.8418 49.0002H30.3335M18.3335 10.3335C18.3335 14.7518 14.7518 18.3335 10.3335 18.3335C5.91522 18.3335 2.3335 14.7518 2.3335 10.3335C2.3335 5.91522 5.91522 2.3335 10.3335 2.3335C14.7518 2.3335 18.3335 5.91522 18.3335 10.3335ZM55.6668 47.6668C55.6668 52.0851 52.0851 55.6668 47.6668 55.6668C43.2486 55.6668 39.6668 52.0851 39.6668 47.6668C39.6668 43.2486 43.2486 39.6668 47.6668 39.6668C52.0851 39.6668 55.6668 43.2486 55.6668 47.6668Z" stroke="#005470" stroke-width="4" stroke-linecap="round" stroke-linejoin="round"/>
</svg>
