<svg width="59" height="58" viewBox="0 0 59 58" fill="none" xmlns="http://www.w3.org/2000/svg">
<path d="M33.5788 19.2718C32.0523 20.36 30.1843 21.0002 28.1668 21.0002C23.0122 21.0002 18.8335 16.8215 18.8335 11.6668C18.8335 6.51217 23.0122 2.3335 28.1668 2.3335C31.5081 2.3335 34.4393 4.08928 36.0882 6.72854M13.5002 50.5659H20.4609C21.3685 50.5659 22.2705 50.6739 23.1503 50.8899L30.5052 52.6772C32.1011 53.066 33.7636 53.1038 35.3761 52.7906L43.5081 51.2085C45.6563 50.79 47.6324 49.7614 49.1811 48.2548L54.9345 42.6581C56.5776 41.0625 56.5776 38.4733 54.9345 36.875C53.4552 35.436 51.1128 35.274 49.4392 36.4943L42.7338 41.3864C41.7735 42.0884 40.605 42.4664 39.4032 42.4664H32.9282L37.0497 42.4662C39.3727 42.4662 41.2544 40.6357 41.2544 38.3759V37.5579C41.2544 35.6815 39.9417 34.0454 38.071 33.5918L31.7097 32.0448C30.6745 31.7937 29.6143 31.6668 28.5485 31.6668C25.9757 31.6668 21.3185 33.797 21.3185 33.797L13.5002 37.0665M50.8335 14.3335C50.8335 19.4882 46.6548 23.6668 41.5002 23.6668C36.3455 23.6668 32.1668 19.4882 32.1668 14.3335C32.1668 9.17884 36.3455 5.00016 41.5002 5.00016C46.6548 5.00016 50.8335 9.17884 50.8335 14.3335ZM2.8335 35.9335L2.8335 51.4002C2.8335 52.8936 2.8335 53.6404 3.12415 54.2108C3.37981 54.7126 3.78776 55.1205 4.28952 55.3762C4.85995 55.6668 5.60669 55.6668 7.10016 55.6668H9.23349C10.727 55.6668 11.4737 55.6668 12.0441 55.3762C12.5459 55.1205 12.9539 54.7126 13.2095 54.2108C13.5002 53.6404 13.5002 52.8936 13.5002 51.4002V35.9335C13.5002 34.44 13.5002 33.6933 13.2095 33.1229C12.9539 32.6211 12.5459 32.2131 12.0441 31.9575C11.4737 31.6668 10.727 31.6668 9.2335 31.6668L7.10016 31.6668C5.60669 31.6668 4.85995 31.6668 4.28952 31.9575C3.78776 32.2131 3.37981 32.6211 3.12415 33.1229C2.8335 33.6933 2.8335 34.44 2.8335 35.9335Z" stroke="#005470" stroke-width="4" stroke-linecap="round" stroke-linejoin="round"/>
</svg>
