<svg width="24" height="24" viewBox="0 0 24 24" fill="none" xmlns="http://www.w3.org/2000/svg">
<path d="M6.93897 5.00002C6.9387 5.53046 6.72773 6.03906 6.35247 6.41394C5.97721 6.78883 5.4684 6.99929 4.93797 6.99902C4.40753 6.99876 3.89893 6.78779 3.52404 6.41253C3.14916 6.03727 2.9387 5.52846 2.93897 4.99802C2.93923 4.46759 3.1502 3.95899 3.52546 3.5841C3.90072 3.20922 4.40953 2.99876 4.93997 2.99902C5.4704 2.99929 5.979 3.21026 6.35389 3.58552C6.72877 3.96078 6.93923 4.46959 6.93897 5.00002ZM6.99897 8.48002H2.99897V21H6.99897V8.48002ZM13.319 8.48002H9.33897V21H13.279V14.43C13.279 10.77 18.049 10.43 18.049 14.43V21H21.999V13.07C21.999 6.90002 14.939 7.13002 13.279 10.16L13.319 8.48002Z" fill="#DCC7B7"/>
</svg>
