<svg width="176" height="94" viewBox="0 0 176 94" fill="none" xmlns="http://www.w3.org/2000/svg">
<path d="M57.8992 15.4745C58.4084 15.6428 58.8942 15.8601 59.3587 16.12C59.3608 16.1264 59.3608 16.1307 59.3651 16.1371C59.3757 16.1371 59.3864 16.1392 59.3949 16.1414H59.397C59.4758 16.1584 59.5547 16.1712 59.6356 16.1818C60.0426 16.2351 60.4623 16.2181 60.8863 16.1286C61.3849 16.0199 61.8365 15.8196 62.2286 15.5427C62.2307 15.5341 62.2307 15.5256 62.2286 15.5171C62.235 15.434 62.2392 15.3488 62.2414 15.2636C62.2435 15.1826 62.2435 15.0995 62.2435 15.0185C62.2435 14.8268 62.2371 14.635 62.2201 14.4411C62.2158 14.4028 62.2137 14.3623 62.2073 14.324C62.1796 14.0555 62.1391 13.7871 62.0794 13.5143C61.8472 12.4299 61.387 11.4583 60.7563 10.6316C60.7031 10.5613 60.6477 10.491 60.5923 10.4228C60.1385 9.87102 59.6058 9.38738 59.0178 8.99322C58.0398 8.33274 56.8978 7.91088 55.6962 7.78731C55.8624 7.0906 55.9263 6.36407 55.8752 5.62476C55.8496 5.27534 55.8006 4.92166 55.726 4.56798C55.5641 3.81801 55.2914 3.11705 54.9292 2.48214C54.3518 1.47011 53.5443 0.624263 52.5962 0C52.2489 0.688181 52.0124 1.43389 51.8995 2.20942C51.5437 1.74282 51.1346 1.32523 50.6829 0.958766C50.4336 1.45093 50.2397 1.97292 50.1076 2.51196C49.999 2.95299 49.9308 3.40681 49.9095 3.86702C49.8946 4.144 49.8946 4.4231 49.9138 4.70221C49.9138 4.70221 49.9138 4.70221 49.9138 4.70434C49.9372 5.06228 49.9862 5.42448 50.065 5.78668C50.2994 6.86902 50.7596 7.8427 51.3903 8.66937C51.4307 8.72263 51.4712 8.77377 51.5117 8.82704C51.5202 8.84834 51.5245 8.87178 51.5309 8.89522C51.5458 8.94635 51.5586 8.99748 51.5692 9.05075C50.945 9.84759 50.2589 10.5976 49.5089 11.2857V11.29C48.2029 12.5002 46.7157 13.5356 45.0837 14.3538C45.0837 14.3538 45.0816 14.3538 45.0794 14.3559C43.6669 15.0633 42.1435 15.6044 40.5264 15.9517C40.2387 16.0157 39.9469 16.0689 39.6592 16.1179C39.4632 16.152 39.2736 16.1797 39.0818 16.2053C39.02 16.2159 38.9604 16.2223 38.9029 16.2308L38.8986 16.2287C37.8738 15.8345 36.8213 15.5 35.7538 15.2252C35.7283 15.2188 35.6985 15.2124 35.675 15.206C33.2568 14.6542 30.7448 14.4049 28.1924 14.4944H28.1903C26.7393 14.5455 25.2799 14.7053 23.814 14.9823C23.6074 15.0228 23.4007 15.0654 23.194 15.108C23.145 15.1187 23.0939 15.1293 23.0427 15.14C22.2992 15.2998 21.5705 15.4873 20.8525 15.7003C18.5472 16.3864 16.3804 17.3366 14.3819 18.5106C13.9686 18.7556 13.5595 19.0091 13.1589 19.2712C10.4296 21.0673 8.04978 23.2938 6.08537 25.8334C2.23965 30.8254 0.0153179 37.0339 0.00040373 43.5621C-0.00172686 43.9115 0.0046653 44.2652 0.0174488 44.6167C0.02171 44.7126 0.0238401 44.8085 0.0302319 44.9043C0.0302319 44.9555 0.0323622 45.0023 0.0366234 45.0513C0.0515375 45.3581 0.0728436 45.6628 0.0984107 45.9718C0.179373 47.0072 0.315732 48.0427 0.513877 49.0803C0.562881 49.3274 0.609753 49.5725 0.663018 49.8153C0.769547 50.3118 0.88886 50.7997 1.01883 51.2812C2.0756 55.2057 3.89725 58.7447 6.28778 61.7658C5.21609 59.6182 4.39155 57.3044 3.8653 54.8521C3.48392 53.0837 3.26873 51.3153 3.2176 49.5725C3.20694 49.2465 3.20268 48.9226 3.20268 48.5988C3.20481 48.0363 3.22399 47.4781 3.25595 46.9199C3.25595 46.9071 3.25595 46.8964 3.25808 46.8858L3.25595 46.8836C3.25808 46.8815 3.25808 46.8794 3.25808 46.8773C3.26234 46.8069 3.2666 46.7366 3.27299 46.6642C3.27512 46.6173 3.27725 46.5726 3.28151 46.5257C3.79712 39.6055 6.77568 33.1648 11.5099 28.3113C13.5637 29.9689 15.0829 32.3168 15.6837 35.0951C16.8789 40.641 14.024 46.1166 9.10655 48.439C9.04902 48.4688 8.9915 48.4944 8.93184 48.5221C8.2394 48.8353 7.50221 49.0867 6.7352 49.2678C6.66063 49.2912 6.5818 49.3061 6.5051 49.3232C6.05341 49.4212 5.60173 49.4915 5.1543 49.5362C5.21822 49.6406 5.28214 49.745 5.34393 49.8494C6.77994 52.2229 7.84737 54.8648 8.46311 57.7284C8.73583 58.9982 8.91267 60.2659 8.99363 61.5229C9.01067 61.8063 9.02346 62.0939 9.02985 62.3773C9.03198 62.3794 9.03198 62.3794 9.03198 62.3816C9.03198 62.3837 9.03198 62.3837 9.03198 62.3858C9.03411 62.388 9.03411 62.388 9.03411 62.3901C9.03837 62.4774 9.03837 62.5648 9.0405 62.65C9.05329 62.7246 9.06394 62.7949 9.08098 62.8695C9.39205 64.3225 10.7514 65.2813 12.1959 65.13C12.2982 65.1194 12.4026 65.1023 12.5091 65.0789L12.5389 65.0725C12.5389 65.0597 12.5368 65.0448 12.5411 65.032C12.6263 63.1784 12.5325 61.2928 12.2428 59.3945C12.23 59.3071 12.2151 59.2198 12.2002 59.1303V59.1282C12.1703 58.9449 12.1384 58.7617 12.1064 58.5806C12.051 58.2695 11.9871 57.9585 11.9211 57.6453C11.8444 57.2958 11.7655 56.9507 11.6782 56.6055C11.6633 56.5459 11.6505 56.4841 11.6356 56.4223C11.3863 55.2654 11.4268 54.1191 11.7037 53.0496C11.7059 53.0453 11.7059 53.0411 11.708 53.0368C11.8252 52.5894 11.9828 52.1569 12.181 51.7457C12.9906 50.0391 14.4522 48.6648 16.3186 48.0022C23.015 46.2594 28.2925 40.8988 29.867 34.0767C29.9608 33.6719 30.0396 33.2628 30.1078 32.8473C30.2377 32.0462 30.3145 31.2259 30.3379 30.3907C30.4338 27.0713 29.6646 23.9265 28.2265 21.1781C30.8407 24.374 32.4131 28.4413 32.4557 32.8537C33.9492 32.8921 35.4726 32.7536 36.996 32.4255C38.0059 32.206 38.9796 31.912 39.9149 31.5519C40.047 31.5008 40.1791 31.4475 40.3112 31.3921C40.4454 31.3367 40.5775 31.2792 40.7117 31.2195C41.5554 30.8424 42.3672 30.4121 43.1427 29.9284C43.2535 29.8581 43.3643 29.7878 43.473 29.7175C43.5412 29.6727 43.6051 29.6237 43.6733 29.579C44.5425 30.9362 45.7847 32.0036 47.2292 32.6641C46.72 33.25 46.2981 33.9084 45.97 34.6114C45.4821 35.6682 45.2115 36.8337 45.2009 38.0417C45.48 38.6596 45.9636 39.1517 46.5496 39.4436C46.3322 37.4451 46.8478 35.5084 47.8982 33.9254C48.0814 33.6463 48.2839 33.38 48.5012 33.1243C48.8932 32.6641 49.3342 32.2465 49.8221 31.8843C49.4621 31.7011 49.1169 31.4923 48.7888 31.2579C47.5914 30.4078 46.6156 29.2424 45.9999 27.849C45.97 27.8511 45.9402 27.849 45.9104 27.8511C46.0638 27.7169 46.2172 27.5826 46.3663 27.442V27.4548C47.0715 26.79 47.7342 26.0763 48.3371 25.3178C48.335 25.3157 48.3329 25.3135 48.3286 25.3114C48.335 25.3072 48.3371 25.2986 48.3435 25.2965C48.5204 25.0707 48.6929 24.8427 48.8591 24.6083C49.1318 24.2312 49.3896 23.8413 49.6325 23.4429C49.7114 23.3172 49.7902 23.1851 49.8626 23.0573C50.2333 22.4266 50.5615 21.7746 50.8576 21.1056C50.9087 20.9927 50.9556 20.8777 51.0046 20.7605C51.2773 20.1128 51.5117 19.4502 51.7077 18.7705L51.7099 18.7684C51.7589 18.5958 51.8079 18.4232 51.8526 18.2485C51.8526 18.2464 51.8526 18.2464 51.8526 18.2464C51.9975 17.7031 52.1147 17.1513 52.2084 16.5952C52.2127 16.5739 52.2169 16.5462 52.2233 16.5227C52.2361 16.4546 52.2489 16.3864 52.2681 16.3182C52.332 16.0583 52.4279 15.8047 52.5472 15.5682L52.5493 15.5661C52.5578 15.5618 52.5685 15.5597 52.577 15.5576C52.9221 15.4297 53.2801 15.3296 53.6487 15.2486C53.9129 15.1911 54.1749 15.1464 54.4391 15.1187C54.4391 15.1187 54.4413 15.1187 54.4434 15.1187C55.6301 14.9823 56.8083 15.1123 57.8992 15.4745Z" fill="#243746"/>
<path d="M100.108 84.1434C101.252 84.1434 102.234 84.5291 103.033 85.377L104.001 84.4396C103.048 83.37 101.653 82.8225 100.048 82.8225C96.8823 82.8225 94.5322 85.066 94.5322 88.1447C94.5322 91.217 96.8801 93.4626 100.033 93.4626C101.651 93.4626 103.048 92.9001 104.001 91.8306L103.033 90.8931C102.234 91.7411 101.252 92.1417 100.108 92.1417C97.7601 92.1417 96.0194 90.45 96.0194 88.1468C96.0194 85.8351 97.7601 84.1434 100.108 84.1434Z" fill="#243746"/>
<path d="M111.988 82.9397L107.273 93.3433H108.807L109.952 90.744H115.483L116.627 93.3433H118.186L113.461 82.9397H111.988ZM110.469 89.5551L112.713 84.4545L114.958 89.5551H110.469Z" fill="#243746"/>
<path d="M126.762 82.9397H122.701V93.3433H124.19V90.19H126.76C129.464 90.19 131.102 88.8243 131.102 86.5638C131.102 84.3032 129.466 82.9397 126.762 82.9397ZM126.717 88.8989H124.193V84.2329H126.717C128.622 84.2329 129.617 85.0809 129.617 86.5659C129.617 88.0509 128.622 88.8989 126.717 88.8989Z" fill="#243746"/>
<path d="M137.748 82.9397H136.263V93.3433H137.748V82.9397Z" fill="#243746"/>
<path d="M142.341 84.2329H145.907V93.3433H147.382V84.2329H150.948V82.9397H142.341V84.2329Z" fill="#243746"/>
<path d="M158.16 82.9397L153.445 93.3433H154.979L156.123 90.744H161.652L162.796 93.3433H164.356L159.63 82.9397H158.16ZM156.641 89.5551L158.885 84.4545L161.13 89.5551H156.641Z" fill="#243746"/>
<path d="M170.364 82.9397H168.875V93.3433H175.998V92.0522H170.364V82.9397Z" fill="#243746"/>
<path d="M46.543 41.6956H41.8131V49.6832H39.0859V54.4131H41.8131V65.13C41.8131 67.4161 42.578 69.257 44.0843 70.5993C45.499 71.8627 47.3654 72.5019 49.6345 72.5019H52.5832V67.7911H48.942C47.6168 67.7911 46.5451 66.7194 46.5451 65.3942V54.4131H52.9497V49.6832H46.5451V41.6956H46.543Z" fill="#243746"/>
<path d="M62.7652 50.9232C61.604 51.4793 60.6602 52.2442 59.9571 53.2009V49.6832H55.208V72.504H59.9571V60.7197C60.0892 58.9705 60.82 57.4663 62.1218 56.2476C63.4257 55.031 64.9981 54.4132 66.8176 54.4132H68.6393V49.8707H66.8112C65.4008 49.9581 64.0393 50.3118 62.7652 50.9232Z" fill="#243746"/>
<path d="M87.2692 53.1646C86.1549 51.6263 84.4973 50.6143 82.3262 50.1456C80.0124 49.6513 77.8925 49.8111 76.0176 50.6186C73.9892 51.507 72.3274 52.9026 71.0788 54.7732C69.8069 56.6439 69.1592 58.7681 69.1592 61.0926C69.1592 63.4447 69.8048 65.5774 71.0788 67.4311C72.3423 69.3102 74.0041 70.7058 76.0176 71.5708C77.8776 72.4039 80.0039 72.5679 82.3262 72.0587C84.4973 71.59 86.1549 70.5737 87.2692 69.029V72.5019H91.9416V49.6811H87.2692V53.1646ZM85.8928 65.7841C84.6997 67.1903 82.9036 67.9062 80.5514 67.9062C78.6723 67.9062 77.0445 67.2308 75.7214 65.9077C74.409 64.5953 73.7378 62.9781 73.7378 61.0926C73.7378 59.2368 74.409 57.6197 75.7214 56.2838C77.0424 54.9565 78.6723 54.2853 80.5514 54.2853C82.8951 54.2853 84.6912 55.0055 85.8928 56.4266C87.086 57.837 87.6889 59.4115 87.6889 61.1139C87.6868 62.7992 87.086 64.3715 85.8928 65.7841Z" fill="#243746"/>
<path d="M112.867 68.9992V72.5019H117.577V41.6956H112.867V53.0027C111.746 51.4431 110.065 50.4183 107.864 49.9538C105.535 49.4595 103.394 49.6236 101.506 50.4375C99.4738 51.3344 97.7927 52.7406 96.5101 54.6262C95.2232 56.5096 94.5713 58.6573 94.5713 60.9988C94.5713 63.3574 95.2232 65.5071 96.5101 67.3927C97.7927 69.2761 99.4759 70.6781 101.506 71.5665C103.39 72.3911 105.531 72.5573 107.864 72.0544C110.065 71.5836 111.746 70.5588 112.867 68.9992ZM101.259 65.8118C99.9382 64.4887 99.2671 62.8673 99.2671 60.9967C99.2671 59.1409 99.9382 57.5238 101.259 56.1922C102.58 54.8606 104.204 54.1894 106.074 54.1894C107.86 54.1894 109.419 54.8009 110.706 56.009C111.993 57.217 112.72 58.7169 112.867 60.464V61.5293C112.72 63.2764 111.993 64.7742 110.706 65.9887C109.419 67.1924 107.86 67.8082 106.074 67.8082C104.204 67.8103 102.58 67.1349 101.259 65.8118Z" fill="#243746"/>
<path d="M143.214 72.5019V41.6956H138.499V53.0027C137.378 51.4431 135.702 50.4183 133.503 49.9538C131.17 49.4595 129.029 49.6236 127.145 50.4375C125.113 51.3344 123.432 52.7406 122.143 54.6262C120.86 56.5096 120.208 58.6573 120.208 60.9988C120.208 63.3574 120.86 65.5071 122.143 67.3927C123.429 69.2761 125.113 70.6781 127.145 71.5665C129.029 72.3911 131.17 72.5573 133.503 72.0544C135.704 71.5857 137.381 70.5588 138.499 69.0013V72.504H143.214V72.5019ZM136.337 65.9908C135.054 67.1946 133.494 67.8103 131.709 67.8103C129.838 67.8103 128.217 67.1349 126.894 65.8118C125.566 64.4887 124.902 62.8716 124.902 60.9967C124.902 59.1409 125.569 57.5238 126.894 56.1922C128.217 54.8606 129.838 54.1894 131.709 54.1894C133.494 54.1894 135.054 54.8009 136.337 56.009C137.623 57.217 138.354 58.7169 138.497 60.464V61.5293C138.354 63.2764 137.623 64.7763 136.337 65.9908Z" fill="#243746"/>
<path d="M150.589 49.6726H145.84V72.504H150.589V49.6726Z" fill="#243746"/>
<path d="M174.786 66.2081L174.869 66.0462H169.176L169.146 66.076C167.868 67.2457 166.334 67.838 164.589 67.838C163.059 67.838 161.683 67.3736 160.505 66.4574C159.35 65.5839 158.566 64.4653 158.167 63.1188H175.813L175.832 63.025C175.945 62.3944 176 61.7424 176 61.0862C176 57.9776 174.875 55.2697 172.662 53.0304C170.437 50.8061 167.723 49.6769 164.591 49.6769C161.459 49.6769 158.755 50.8061 156.554 53.0304C154.339 55.2462 153.216 57.9542 153.216 61.0862C153.216 64.2288 154.341 66.9474 156.554 69.1569C158.77 71.3727 161.472 72.4955 164.591 72.4955C166.815 72.4955 168.859 71.9075 170.648 70.7442C172.468 69.5915 173.859 68.0617 174.786 66.2081ZM160.652 55.617C161.796 54.7626 163.119 54.3301 164.589 54.3301C166.044 54.3301 167.376 54.7647 168.545 55.617C169.645 56.4415 170.444 57.4876 170.923 58.734H158.284C158.728 57.4855 159.529 56.4394 160.652 55.617Z" fill="#243746"/>
<path d="M150.593 46.3957V45.4668V44.5379H145.84V45.4668V46.3957V47.3268H150.593V46.3957Z" fill="#243746"/>
<path d="M31.2944 59.4073L28.0069 58.5039C26.85 58.1779 26.0297 57.7838 25.5695 57.3363C25.1541 56.9315 24.9517 56.4671 24.9517 55.9195C24.9517 55.1844 25.2201 54.6561 25.7996 54.2598C26.4345 53.8251 27.372 53.6057 28.5843 53.6057C29.8478 53.6057 30.864 53.872 31.6076 54.3982C32.3278 54.9096 32.7581 55.6297 32.9243 56.5991L33.0117 57.1041H37.3624L37.2963 56.4372C37.0875 54.3258 36.1927 52.6469 34.6352 51.4474C33.1054 50.2713 31.1133 49.6747 28.71 49.6747C26.2769 49.6747 24.3103 50.2521 22.8615 51.3877C21.3701 52.5595 20.6138 54.1681 20.6138 56.1645C20.6138 57.7433 21.1528 59.1218 22.2181 60.2616C23.2536 61.3717 24.8068 62.1983 26.833 62.7203L30.2078 63.5854C31.7909 63.9902 32.4364 64.4333 32.6985 64.7337C33.0692 65.1577 33.2482 65.6414 33.2482 66.2081C33.2482 67.0263 32.9414 67.61 32.283 68.0489C31.565 68.5283 30.5295 68.7691 29.2043 68.7691C27.6959 68.7691 26.4857 68.4474 25.61 67.8146C24.7535 67.1967 24.255 66.3189 24.0866 65.1343L24.0121 64.6123H19.6465L19.7125 65.2792C19.949 67.6356 20.9121 69.4871 22.5782 70.7804C24.2166 72.0523 26.4175 72.6979 29.1234 72.6979C31.7142 72.6979 33.7872 72.1397 35.285 71.036C36.8425 69.8919 37.6308 68.279 37.6308 66.2465C37.6308 64.5867 37.079 63.1465 35.9881 61.9661C34.9207 60.8177 33.3419 59.9548 31.2944 59.4073Z" fill="#243746"/>
</svg>
