<svg width="448" height="237" viewBox="0 0 448 237" fill="none" xmlns="http://www.w3.org/2000/svg">
<path d="M265.484 213.779C268.23 213.779 270.582 214.7 272.5 216.734L274.819 214.486C272.539 211.921 269.189 210.605 265.347 210.605C257.755 210.605 252.12 215.988 252.12 223.366C252.12 230.733 257.75 236.116 265.309 236.116C269.189 236.116 272.533 234.768 274.819 232.202L272.5 229.955C270.582 231.988 268.23 232.948 265.484 232.948C259.854 232.948 255.678 228.891 255.678 223.366C255.678 217.835 259.854 213.779 265.484 213.779Z" fill="#005470"/>
<path d="M293.966 210.89L282.657 235.837H286.335L289.082 229.604H302.341L305.087 235.837H308.826L297.496 210.89H293.966ZM290.326 226.754L295.709 214.525L301.091 226.754H290.326Z" fill="#005470"/>
<path d="M329.392 210.89H319.657V235.837H323.231V228.278H329.392C335.877 228.278 339.802 225 339.802 219.584C339.802 214.168 335.877 210.89 329.392 210.89ZM329.288 225.181H323.231V213.993H329.288C333.854 213.993 336.244 216.027 336.244 219.589C336.244 223.152 333.854 225.181 329.288 225.181Z" fill="#005470"/>
<path d="M355.737 210.89H352.174V235.837H355.737V210.89Z" fill="#005470"/>
<path d="M366.749 213.993H375.3V235.837H378.836V213.993H387.387V210.89H366.749V213.993Z" fill="#005470"/>
<path d="M404.68 210.89L393.372 235.837H397.05L399.796 229.604H413.056L415.802 235.837H419.541L408.21 210.89H404.68ZM401.035 226.754L406.418 214.525L411.801 226.754H401.035Z" fill="#005470"/>
<path d="M433.946 210.89H430.372V235.837H447.452V232.74H433.946V210.89Z" fill="#005470"/>
<path d="M113.022 155.637C112.524 154.908 111.954 154.201 111.329 153.494C109.465 151.422 107.223 149.728 104.658 148.451C102.114 147.185 99.5216 146.105 96.9563 145.239C95.416 144.762 93.8318 144.307 92.2532 143.896C90.7019 143.485 89.1342 143.046 87.6213 142.607L87.265 142.547V142.564C85.9056 142.229 84.5133 141.846 83.132 141.429C81.652 140.969 80.2268 140.426 78.8948 139.806C76.6035 138.82 74.6631 137.175 73.1228 134.922C71.6099 132.708 71.7798 130.455 73.649 128.032C75.5292 125.609 78.4946 124.184 82.4577 123.806C86.4866 123.422 89.9235 123.362 92.6478 123.631C95.8326 123.981 99.3078 124.694 102.986 125.741C106.637 126.788 109.816 128.295 112.43 130.23L112.869 130.554V118.785L112.737 118.703C111.038 117.628 109.207 116.675 107.294 115.869C101.637 113.484 95.1145 112.185 87.9063 112.01C80.6763 111.834 74.2903 113.435 68.913 116.784C64.0455 119.848 60.9703 124.113 59.748 129.457C58.5311 134.824 59.9563 139.828 63.9852 144.345C65.8434 146.412 68.0853 148.116 70.6506 149.41C73.1995 150.687 75.7923 151.751 78.3466 152.551C79.8924 153.088 81.4711 153.57 83.0333 153.987C84.5736 154.398 86.1687 154.804 87.7419 155.187C89.1726 155.577 90.6526 155.999 92.138 156.432C93.6235 156.876 95.0761 157.413 96.4575 158.027C98.7213 159.046 100.64 160.696 102.164 162.933C103.666 165.136 103.501 167.367 101.659 169.757C99.7847 172.213 96.8192 173.649 92.8561 174.027C88.8327 174.411 85.3958 174.46 82.6606 174.164C79.4758 173.868 75.9951 173.178 72.3061 172.12C68.6389 171.056 65.4652 169.543 62.8834 167.609L62.4449 167.28V179.054L62.5709 179.131C64.2099 180.183 66.0462 181.115 68.014 181.921C73.6435 184.338 80.161 185.659 87.3801 185.851C87.7693 185.862 88.153 185.867 88.5312 185.867C95.3009 185.867 101.303 184.234 106.401 181.011C111.263 177.974 114.349 173.731 115.588 168.403C116.525 164.363 115.933 160.521 113.845 156.92C113.587 156.487 113.318 156.065 113.022 155.637Z" fill="#005470"/>
<path d="M137.048 111.993H125.706V131.151H119.167V142.492H125.706V168.19C125.706 173.671 127.537 178.084 131.15 181.301C134.543 184.327 139.015 185.867 144.459 185.867H151.53V174.57H142.798C139.618 174.57 137.048 171.999 137.048 168.82V142.487H152.401V131.146H137.048V111.993Z" fill="#005470"/>
<path d="M175.939 134.122C173.154 135.454 170.89 137.291 169.207 139.582V131.146H157.822V185.867H169.207V157.61C169.525 153.417 171.279 149.81 174.398 146.883C177.528 143.967 181.299 142.481 185.657 142.481H190.021V131.601H185.641C182.259 131.809 178.997 132.659 175.939 134.122Z" fill="#005470"/>
<path d="M234.694 139.494C232.019 135.805 228.045 133.377 222.843 132.253C217.296 131.069 212.209 131.447 207.714 133.388C202.852 135.514 198.867 138.864 195.874 143.347C192.821 147.831 191.275 152.929 191.275 158.498C191.275 164.139 192.827 169.253 195.874 173.698C198.9 178.204 202.891 181.553 207.714 183.62C212.176 185.621 217.274 186.01 222.843 184.793C228.045 183.669 232.025 181.235 234.694 177.53V185.856H245.898V131.14H234.694V139.494ZM231.394 169.752C228.533 173.123 224.225 174.839 218.584 174.839C214.078 174.839 210.176 173.216 207.002 170.048C203.855 166.901 202.249 163.02 202.249 158.504C202.249 154.058 203.861 150.177 207.002 146.971C210.17 143.791 214.073 142.18 218.584 142.18C224.203 142.18 228.506 143.907 231.394 147.316C234.256 150.698 235.697 154.475 235.697 158.553C235.703 162.598 234.256 166.37 231.394 169.752Z" fill="#005470"/>
<path d="M296.07 177.464V185.862H307.367V111.993H296.07V139.105C293.384 135.366 289.35 132.905 284.077 131.793C278.491 130.609 273.36 130.998 268.827 132.949C263.954 135.103 259.92 138.474 256.845 142.991C253.759 147.508 252.196 152.655 252.196 158.274C252.196 163.925 253.759 169.083 256.845 173.605C259.92 178.122 263.954 181.482 268.827 183.614C273.344 185.588 278.48 185.993 284.077 184.787C289.355 183.664 293.39 181.203 296.07 177.464ZM268.241 169.823C265.072 166.655 263.461 162.763 263.461 158.279C263.461 153.834 265.067 149.953 268.241 146.757C271.409 143.561 275.301 141.955 279.785 141.955C284.066 141.955 287.804 143.424 290.89 146.318C293.976 149.213 295.714 152.814 296.07 157.002V159.556C295.714 163.744 293.976 167.34 290.89 170.251C287.804 173.139 284.066 174.614 279.785 174.614C275.301 174.614 271.409 172.991 268.241 169.823Z" fill="#005470"/>
<path d="M368.842 185.862V111.993H357.534V139.105C354.848 135.366 350.83 132.905 345.551 131.793C339.955 130.609 334.824 130.998 330.302 132.949C325.429 135.103 321.394 138.474 318.308 142.991C315.233 147.508 313.671 152.655 313.671 158.274C313.671 163.925 315.233 169.083 318.308 173.605C321.394 178.122 325.429 181.482 330.302 183.614C334.818 185.588 339.955 185.993 345.551 184.787C350.824 183.664 354.848 181.203 357.534 177.464V185.862H368.842ZM352.354 170.251C349.279 173.139 345.54 174.614 341.259 174.614C336.775 174.614 332.883 172.991 329.715 169.823C326.536 166.655 324.935 162.774 324.935 158.279C324.935 153.834 326.53 149.953 329.715 146.757C332.883 143.561 336.775 141.955 341.259 141.955C345.54 141.955 349.279 143.424 352.354 146.318C355.44 149.218 357.194 152.814 357.534 157.002V159.556C357.188 163.744 355.44 167.34 352.354 170.251Z" fill="#005470"/>
<path d="M386.521 131.124H375.136V185.867H386.521V131.124Z" fill="#005470"/>
<path d="M444.542 170.771L444.744 170.382H431.096L431.024 170.453C427.96 173.254 424.282 174.674 420.094 174.674C416.427 174.674 413.127 173.561 410.299 171.363C407.531 169.269 405.651 166.583 404.691 163.355H447.003L447.052 163.13C447.326 161.617 447.452 160.055 447.452 158.482C447.452 151.033 444.755 144.537 439.444 139.165C434.11 133.832 427.604 131.124 420.094 131.124C412.585 131.124 406.1 133.832 400.827 139.165C395.515 144.477 392.818 150.972 392.818 158.482C392.818 166.019 395.515 172.536 400.827 177.831C406.138 183.143 412.617 185.84 420.094 185.84C425.428 185.84 430.328 184.431 434.62 181.641C438.983 178.884 442.316 175.217 444.542 170.771ZM410.655 145.376C413.401 143.331 416.57 142.29 420.094 142.29C423.586 142.29 426.776 143.331 429.583 145.376C432.219 147.349 434.138 149.859 435.283 152.852H404.982C406.04 149.859 407.958 147.349 410.655 145.376Z" fill="#005470"/>
<path d="M386.537 123.269V121.038V118.812H375.136V121.038V123.269V125.494H386.537V123.269Z" fill="#005470"/>
<path d="M117.517 75.8374C114.65 73.7983 112.304 71.0082 110.829 67.6645C110.758 67.67 110.687 67.6645 110.615 67.67C110.983 67.3466 111.355 67.0232 111.712 66.6888V66.7162C113.405 65.1211 114.99 63.4109 116.437 61.5965C116.431 61.591 116.426 61.5856 116.42 61.5801C116.437 61.5691 116.442 61.5527 116.453 61.5472C116.875 61.0045 117.286 60.4564 117.686 59.8973C118.339 58.9928 118.958 58.0555 119.545 57.1017C119.737 56.8002 119.923 56.4878 120.098 56.1753C120.986 54.6624 121.776 53.1002 122.483 51.4942C122.603 51.2256 122.718 50.946 122.834 50.6665C123.486 49.1097 124.05 47.5256 124.516 45.8976L124.522 45.8921C124.642 45.481 124.758 45.0644 124.862 44.6478C124.862 44.6423 124.862 44.6423 124.862 44.6423C125.207 43.3377 125.492 42.0167 125.711 40.6792C125.722 40.6244 125.733 40.5641 125.744 40.5038C125.772 40.3448 125.81 40.1749 125.854 40.0104C126.007 39.3856 126.238 38.7826 126.523 38.2125L126.528 38.207C126.55 38.1961 126.572 38.1961 126.594 38.1851C127.422 37.8782 128.282 37.637 129.165 37.4451C129.801 37.3081 130.425 37.2039 131.061 37.1327C131.061 37.1327 131.067 37.1327 131.072 37.1327C133.939 36.7983 136.762 37.1107 139.382 37.9768V37.9823C140.599 38.3824 141.767 38.8977 142.879 39.5281C142.885 39.5445 142.885 39.5555 142.89 39.5665C142.912 39.5665 142.94 39.5719 142.962 39.5774H142.967C143.159 39.6158 143.345 39.6487 143.537 39.6706C144.513 39.7967 145.521 39.7583 146.535 39.5445C147.73 39.2869 148.81 38.8045 149.753 38.1358C149.759 38.1139 149.759 38.0974 149.753 38.0755C149.77 37.8727 149.78 37.6699 149.786 37.467C149.791 37.2697 149.791 37.0724 149.786 36.8805C149.786 36.4201 149.77 35.9596 149.731 35.4992C149.72 35.406 149.715 35.3128 149.698 35.2196C149.633 34.5728 149.534 33.9315 149.391 33.2792C148.832 30.681 147.73 28.3459 146.223 26.3671C146.097 26.1971 145.965 26.0327 145.828 25.8627C144.738 24.5362 143.466 23.3796 142.052 22.4313C139.706 20.8472 136.97 19.8386 134.087 19.5371C134.482 17.8653 134.635 16.1276 134.52 14.3516C134.46 13.513 134.345 12.6633 134.164 11.8192C133.775 10.0213 133.122 8.33846 132.251 6.82009C130.864 4.39179 128.929 2.36363 126.654 0.867188C125.821 2.51711 125.256 4.30408 124.982 6.16779C124.127 5.04957 123.146 4.04645 122.066 3.16942C121.469 4.34793 121.003 5.59772 120.69 6.89135C120.427 7.94927 120.263 9.0346 120.213 10.1419C120.181 10.8051 120.181 11.4739 120.224 12.1481C120.224 12.1481 120.224 12.1481 120.224 12.1536C120.285 13.0141 120.4 13.8802 120.586 14.7463C121.145 17.339 122.253 19.6796 123.76 21.6584C123.853 21.7845 123.952 21.9106 124.05 22.0367C124.067 22.086 124.083 22.1463 124.094 22.2011C124.127 22.3272 124.16 22.4478 124.187 22.5739C122.691 24.4869 121.047 26.2793 119.249 27.9347V27.9457C116.113 30.8509 112.55 33.3285 108.637 35.2909C108.637 35.2909 108.631 35.2909 108.626 35.2964C105.238 36.9902 101.587 38.2893 97.7119 39.1225C97.0212 39.2759 96.3196 39.4075 95.629 39.5226C95.163 39.6048 94.7026 39.6706 94.2476 39.7309C94.0996 39.7583 93.9571 39.7693 93.8201 39.7912L93.8091 39.7857C91.3534 38.8429 88.8319 38.0371 86.2666 37.3793C86.2008 37.3629 86.135 37.3519 86.0747 37.3355C80.2753 36.0144 74.2512 35.417 68.1338 35.6308H68.1284C64.6476 35.7568 61.1504 36.1405 57.6313 36.7983C57.1325 36.897 56.6392 36.9956 56.1404 37.0998C56.0198 37.1272 55.8992 37.1491 55.7786 37.1765C53.9971 37.5602 52.2485 38.0097 50.5273 38.5195C44.9965 40.1639 39.8055 42.4442 35.0147 45.2562C34.0226 45.8428 33.0414 46.4512 32.0821 47.0816C25.5372 51.3845 19.831 56.7235 15.1224 62.8189C5.90258 74.7905 0.569096 89.6727 0.536207 105.328C0.530725 106.166 0.547165 107.016 0.574573 107.86C0.580054 108.09 0.591019 108.321 0.601982 108.551C0.601982 108.671 0.607463 108.787 0.618426 108.902C0.656796 109.636 0.70065 110.371 0.766428 111.105C0.95828 113.588 1.28717 116.071 1.76406 118.56C1.87917 119.152 1.99428 119.739 2.12035 120.32C2.3725 121.509 2.65754 122.677 2.97546 123.833C5.50791 133.245 9.88213 141.73 15.6103 148.971C13.0395 143.824 11.0661 138.277 9.79991 132.395C8.8845 128.153 8.36924 123.915 8.24865 119.739C8.22124 118.96 8.21028 118.176 8.21576 117.403C8.22124 116.055 8.2651 114.712 8.34184 113.38C8.34184 113.353 8.34184 113.32 8.34732 113.298L8.34184 113.292C8.34732 113.287 8.34732 113.281 8.34732 113.276C8.35828 113.111 8.36924 112.936 8.38021 112.766C8.38569 112.651 8.39116 112.547 8.40213 112.432C9.63546 95.8393 16.7778 80.398 28.13 68.7553C33.0524 72.7349 36.6975 78.3589 38.1337 85.0244C41.0005 98.3224 34.1541 111.451 22.3635 117.02C22.2264 117.091 22.0839 117.151 21.9469 117.217C20.286 117.968 18.5209 118.571 16.6792 119.004C16.4983 119.059 16.3119 119.097 16.1255 119.136C15.0457 119.371 13.9604 119.536 12.886 119.645C13.0395 119.898 13.1929 120.144 13.3409 120.396C16.7833 126.086 19.3432 132.423 20.8177 139.286C21.4755 142.328 21.8975 145.37 22.0894 148.385C22.1278 149.065 22.1606 149.755 22.1771 150.429C22.1826 150.435 22.1826 150.435 22.1826 150.44C22.1826 150.446 22.1826 150.446 22.1826 150.451C22.1881 150.457 22.1881 150.457 22.1881 150.462C22.199 150.676 22.199 150.879 22.2045 151.087C22.2319 151.263 22.2648 151.438 22.3032 151.613C23.0486 155.094 26.3046 157.396 29.7744 157.035C30.0211 157.007 30.2732 156.969 30.5254 156.914L30.5966 156.903C30.5966 156.876 30.5966 156.832 30.6021 156.804C30.8049 152.359 30.5802 147.837 29.8895 143.287C29.8567 143.073 29.8238 142.87 29.7854 142.651V142.646C29.7141 142.207 29.6374 141.769 29.5606 141.33C29.4236 140.585 29.2756 139.839 29.1166 139.088C28.9358 138.25 28.7439 137.422 28.5301 136.594C28.4972 136.452 28.4644 136.304 28.4315 136.156C27.834 133.382 27.9327 130.63 28.5959 128.065C28.6014 128.054 28.6014 128.043 28.6069 128.038C28.8864 126.969 29.2647 125.927 29.7415 124.941C31.682 120.851 35.1901 117.557 39.6575 115.967C55.7183 111.79 68.3695 98.9364 72.1408 82.5742C72.3655 81.6039 72.5574 80.6227 72.7164 79.6251C73.0288 77.7011 73.2097 75.7387 73.27 73.7325C73.5002 65.7734 71.6529 58.2364 68.2106 51.6422C74.4759 59.3053 78.2527 69.0568 78.3513 79.6416C81.9307 79.7293 85.5814 79.4004 89.2375 78.6165C91.6604 78.0903 93.9955 77.3887 96.2374 76.5226C96.5553 76.402 96.8733 76.2705 97.1912 76.1389C97.5146 76.0073 97.8325 75.8703 98.1504 75.7278C100.173 74.8233 102.119 73.7873 103.983 72.6308C104.246 72.4608 104.514 72.2909 104.778 72.1264C104.942 72.0168 105.095 71.9017 105.26 71.7921C107.348 75.0481 110.325 77.6024 113.784 79.1866C112.567 80.5953 111.553 82.1685 110.763 83.8568C109.59 86.3893 108.943 89.1848 108.922 92.079C109.59 93.5645 110.747 94.7376 112.156 95.4392C111.635 90.6484 112.868 86.0056 115.39 82.2069C115.834 81.5382 116.316 80.8968 116.837 80.2829C117.78 79.1811 118.832 78.178 120.005 77.3065C119.134 76.9008 118.306 76.402 117.517 75.8374Z" fill="#005470"/>
</svg>
