<svg width="24" height="24" viewBox="0 0 24 24" fill="none" xmlns="http://www.w3.org/2000/svg">
<path d="M1.99902 7L10.1639 12.7154C10.8251 13.1783 11.1557 13.4097 11.5153 13.4993C11.8329 13.5785 12.1651 13.5785 12.4828 13.4993C12.8423 13.4097 13.1729 13.1783 13.8341 12.7154L21.999 7M6.79902 20H17.199C18.8792 20 19.7193 20 20.361 19.673C20.9255 19.3854 21.3844 18.9265 21.672 18.362C21.999 17.7202 21.999 16.8802 21.999 15.2V8.8C21.999 7.11984 21.999 6.27976 21.672 5.63803C21.3844 5.07354 20.9255 4.6146 20.361 4.32698C19.7193 4 18.8792 4 17.199 4H6.79902C5.11887 4 4.27879 4 3.63705 4.32698C3.07257 4.6146 2.61362 5.07354 2.326 5.63803C1.99902 6.27976 1.99902 7.11984 1.99902 8.8V15.2C1.99902 16.8802 1.99902 17.7202 2.326 18.362C2.61362 18.9265 3.07257 19.3854 3.63705 19.673C4.27879 20 5.11887 20 6.79902 20Z" stroke="#DCC7B7" stroke-width="2" stroke-linecap="round" stroke-linejoin="round"/>
</svg>
