<svg width="24" height="24" viewBox="0 0 24 24" fill="none" xmlns="http://www.w3.org/2000/svg">
<path d="M8.3793 8.85335C9.0753 10.303 10.0241 11.6616 11.2257 12.8632C12.4272 14.0648 13.7859 15.0136 15.2355 15.7096C15.3602 15.7694 15.4225 15.7994 15.5014 15.8224C15.7818 15.9041 16.126 15.8454 16.3635 15.6754C16.4303 15.6275 16.4874 15.5704 16.6018 15.4561C16.9514 15.1064 17.1262 14.9316 17.3019 14.8174C17.9648 14.3864 18.8194 14.3864 19.4823 14.8174C19.6581 14.9316 19.8329 15.1064 20.1825 15.4561L20.3774 15.6509C20.9088 16.1824 21.1745 16.4481 21.3189 16.7335C21.6059 17.301 21.6059 17.9713 21.3189 18.5389C21.1745 18.8242 20.9088 19.09 20.3774 19.6214L20.2197 19.779C19.6901 20.3087 19.4253 20.5735 19.0653 20.7757C18.6658 21.0001 18.0453 21.1615 17.587 21.1601C17.1741 21.1589 16.8919 21.0788 16.3274 20.9186C13.294 20.0576 10.4317 18.4332 8.04368 16.0452C5.6557 13.6572 4.03123 10.7948 3.17026 7.76144C3.01005 7.19699 2.92995 6.91477 2.92872 6.50182C2.92736 6.0436 3.08872 5.42311 3.31314 5.0236C3.51539 4.66357 3.7802 4.39876 4.30982 3.86913L4.46746 3.7115C4.9989 3.18006 5.26462 2.91433 5.55 2.76999C6.11756 2.48292 6.78783 2.48292 7.35539 2.76999C7.64077 2.91433 7.90649 3.18006 8.43793 3.7115L8.6328 3.90637C8.98241 4.25597 9.15721 4.43078 9.2715 4.60655C9.70249 5.26945 9.70249 6.12403 9.2715 6.78692C9.15721 6.96269 8.98241 7.1375 8.6328 7.4871C8.51849 7.60142 8.46133 7.65857 8.41349 7.72538C8.24348 7.96281 8.18478 8.30707 8.2665 8.58743C8.2895 8.66632 8.31943 8.72866 8.3793 8.85335Z" stroke="#DCC7B7" stroke-width="2" stroke-linecap="round" stroke-linejoin="round"/>
</svg>
