<svg width="65" height="64" viewBox="0 0 65 64" fill="none" xmlns="http://www.w3.org/2000/svg">
<path d="M51.1668 56V40M43.1668 48H59.1668M32.5002 40H21.8335C16.8635 40 14.3784 40 12.4182 40.812C9.80457 41.8946 7.72805 43.9711 6.64545 46.5847C5.8335 48.5449 5.8335 51.03 5.8335 56M41.8335 8.77536C45.7426 10.3577 48.5002 14.1902 48.5002 18.6667C48.5002 23.1432 45.7426 26.9756 41.8335 28.558M36.5002 18.6667C36.5002 24.5577 31.7245 29.3333 25.8335 29.3333C19.9425 29.3333 15.1668 24.5577 15.1668 18.6667C15.1668 12.7756 19.9425 8 25.8335 8C31.7245 8 36.5002 12.7756 36.5002 18.6667Z" stroke="#005470" stroke-width="4" stroke-linecap="round" stroke-linejoin="round"/>
</svg>
